# xmcd CD database file generated by LOLA_Freedb v0.9beta0
# 
# Track frame offsets:
#      150
#      14777
#      27569
#      40178
#      56385
#      71898
#      86465
#      99780
#      110658
#      123830
#      139574
#      148293
#      169478
#      187103
# 
# Disc length: 2656 seconds
# 
# Revision: 0 
# Processed by: cddbd v1.5.2PL0 Copyright (c) Steve Scherf et al.
# Submitted via: LOLA_Freedb v0.9beta0
# 
DISCID=cd0a5e0e
DTITLE=Daniel T. Coates - HEY, GOOD LOOKIN´
DYEAR=2008
DGENRE=
TTITLE0=Daniel T. Coates - Oklahoma Hills
TTITLE1=Daniel T. Coates - I Got Mexico
TTITLE2=Daniel T. Coates - This Little Tune
TTITLE3=Daniel T. Coates - Try To Move A Little Faster
TTITLE4=Daniel T. Coates - Hey,Good Lookin´
TTITLE5=Daniel T. Coates - Back in Wichita
TTITLE6=Daniel T. Coates - Streets Of Bakersfield
TTITLE7=Daniel T. Coates - Waitin´In Your Welfare Line
TTITLE8=Daniel T. Coates - Color Blind
TTITLE9=Daniel T. Coates - Up On The Hill
TTITLE10=Daniel T. Coates - Are You Cool Enough
TTITLE11=Daniel T. Coates - Wild World
TTITLE12=Daniel T. Coates - One After 909
TTITLE13=Daniel T. Coates - Amigo
EXTD=
EXTT0=
EXTT1=
EXTT2=
EXTT3=
EXTT4=
EXTT5=
EXTT6=
EXTT7=
EXTT8=
EXTT9=
EXTT10=
EXTT11=
EXTT12=
EXTT13=
PLAYORDER=
